<?xml version="1.0" encoding="UTF-8"?><svg id="a" xmlns="http://www.w3.org/2000/svg" viewBox="0 0 215.6 250.52"><defs><style>.b{stroke:#000;stroke-miterlimit:10;}.c{fill:#fff;}.d{fill:#ff00d6;}</style></defs><path class="c" d="M178.48,102l-42.89-66.1s-.03-.07-.07-.1l-14.41-22.2C115.72,5.24,106.52,.25,96.59,.22c-9.97-.03-19.16,4.91-24.61,13.24L14.09,101.55c-22.42,34.54-17.78,76.85,11.83,107.8l30.41,31.79c4.89,5.11,12.16,8.05,19.91,7.38h.03c7.55,.71,14.65-2.01,19.6-6.87,4.89,4.85,11.93,7.65,19.48,7.87h.03c7.78-.17,15.08-3.06,20.03-8.15l30.6-31.6c29.77-30.74,34.69-73.02,12.48-107.76Zm-82.52,106.26l-13.22-21.83c-9.46-15.56-11.38-36.36-5.07-54.33l14.13-40.16c1.8-5.06,3.47-7.67,4.53-8.93,1.02,1.26,2.7,3.88,4.44,8.96l13.89,40.25c6.21,18,4.16,38.79-5.36,54.3l-13.35,21.75Zm55.78-12.32l-30.6,31.57c-1.16,1.22-3.35,1.94-5.7,1.94-2.32,0-4.47-.74-5.66-1.97l-1.39-1.46,17.84-29.09c12.55-20.46,15.31-47.74,7.23-71.18l-13.89-40.25c-6.6-19.13-16.26-23.17-23.18-23.19-6.95-.02-16.64,3.96-23.35,23.05l-14.13,40.16c-8.22,23.39-5.62,50.69,6.81,71.22l17.7,29.2-1.4,1.45c-1.16,1.22-3.35,1.94-5.7,1.94-2.32,0-4.47-.74-5.62-1.97l-30.44-31.75c-23.34-24.41-27.02-56.32-9.55-83.19L88.57,24.37c.23-.33,.47-.66,.7-.93,.1-.17,.33-.4,.7-.73,.13-.13,.3-.26,.46-.43,.17-.13,.37-.33,.6-.5,1.56-1.12,3.45-1.71,5.5-1.71,3.28,0,6.16,1.58,7.94,4.33l2.44,3.78,54.86,84.55c17.31,27.04,13.47,58.92-10.02,83.2Z"/><path class="d" d="M201.8,101.79l-42.89-66.1s-.03-.07-.07-.1l-14.41-22.2C139.03,5.03,129.84,.03,119.9,0c-9.97-.03-19.16,4.91-24.61,13.24L37.4,101.33c-22.42,34.54-17.78,76.85,11.83,107.8l30.41,31.79c4.89,5.11,12.16,8.05,19.91,8.6h.03c7.55-.5,14.65-3.23,19.6-8.09,4.89,4.85,11.93,7.65,19.48,8.09h.03c7.78-.39,15.08-3.28,20.03-8.36l30.6-31.6c29.77-30.74,34.69-73.02,12.48-107.76Zm-82.52,106.26l-13.22-21.83c-9.46-15.56-11.38-36.36-5.07-54.33l14.13-40.16c1.8-5.06,3.47-7.67,4.53-8.93,1.02,1.26,2.7,3.88,4.44,8.96l13.89,40.25c6.21,18,4.16,38.79-5.36,54.3l-13.35,21.75Zm55.78-12.32l-30.6,31.57c-1.16,1.22-3.35,1.94-5.7,1.94-2.32,0-4.47-.74-5.66-1.97l-1.39-1.46,17.84-29.09c12.55-20.46,15.31-47.74,7.23-71.18l-13.89-40.25c-6.6-19.13-16.26-23.17-23.18-23.19-6.95-.02-16.64,3.96-23.35,23.05l-14.13,40.16c-8.22,23.39-5.62,50.69,6.81,71.22l17.7,29.2-1.4,1.45c-1.16,1.22-3.35,1.94-5.7,1.94-2.32,0-4.47-.74-5.62-1.97l-30.44-31.75c-23.34-24.41-27.02-56.32-9.55-83.19L111.88,24.15c.23-.33,.47-.66,.7-.93,.1-.17,.33-.4,.7-.73,.13-.13,.3-.26,.46-.43,.17-.13,.37-.33,.6-.5,1.56-1.12,3.45-1.71,5.5-1.71,3.28,0,6.16,1.58,7.94,4.33l2.44,3.78,54.86,84.55c17.31,27.04,13.47,58.92-10.02,83.2Z"/><path class="b" d="M190.93,102.29l-42.89-66.1s-.03-.07-.07-.1l-14.41-22.2c-5.41-8.36-14.6-13.36-24.53-13.39-9.97-.03-19.16,4.91-24.61,13.24L26.53,101.83c-22.42,34.54-17.78,76.85,11.83,107.8l30.41,31.79c4.89,5.11,12.16,8.05,19.91,8.6h.03c7.55-.5,14.65-3.23,19.6-8.08,4.89,4.85,11.93,7.65,19.48,8.08h.03c7.78-.39,15.08-3.28,20.03-8.36l30.6-31.6c29.77-30.74,34.69-73.02,12.48-107.76Zm-82.52,106.26l-13.22-21.83c-9.46-15.56-11.38-36.36-5.07-54.33l14.13-40.16c1.8-5.06,3.47-7.67,4.53-8.93,1.02,1.26,2.7,3.88,4.44,8.96l13.89,40.25c6.21,18,4.16,38.79-5.36,54.3l-13.35,21.75Zm55.78-12.32l-30.6,31.57c-1.16,1.22-3.35,1.94-5.7,1.94-2.32,0-4.47-.74-5.66-1.97l-1.39-1.46,17.84-29.09c12.55-20.46,15.31-47.74,7.23-71.18l-13.89-40.25c-6.6-19.13-16.26-23.17-23.18-23.19-6.95-.02-16.64,3.96-23.35,23.05l-14.13,40.16c-8.22,23.39-5.62,50.69,6.81,71.22l17.7,29.2-1.4,1.45c-1.16,1.22-3.35,1.94-5.7,1.94-2.32,0-4.47-.74-5.62-1.97l-30.44-31.75c-23.34-24.41-27.02-56.32-9.55-83.19L101.01,24.65c.23-.33,.47-.66,.7-.93,.1-.17,.33-.4,.7-.73,.13-.13,.3-.26,.46-.43,.17-.13,.37-.33,.6-.5,1.56-1.12,3.45-1.71,5.5-1.71,3.28,0,6.16,1.58,7.94,4.33l2.44,3.78,54.86,84.55c17.31,27.04,13.47,58.92-10.02,83.2Z"/></svg>